<?xml version="1.0" standalone="no"?>
<!DOCTYPE svg PUBLIC "-//W3C//DTD SVG 1.0//EN" "http://www.w3.org/TR/2001/REC-SVG-20010904/DTD/svg10.dtd">
<svg xmlns="http://www.w3.org/2000/svg" xmlns:xlink="http://www.w3.org/1999/xlink" id="body_1" width="82" height="61">

<g transform="matrix(0.080078125 0 0 0.079427086 0 0)">
	<g transform="matrix(1.5 0 0 1.5 128.00003 -0)">
	</g>
    <path transform="matrix(1.5 0 0 1.5 128.00003 -0)"  d="M43.585 7.515L444.36798 7.515L444.36798 504.48602L43.585 504.48602L43.585 7.515z" stroke="none" fill="#61E7C4" fill-rule="nonzero" />
	<g transform="matrix(1.5 0 0 1.5 128.00003 -0)">
	</g>
    <path transform="matrix(1.5 0 0 1.5 128.00003 -0)"  d="M380.243 87.671L412.306 87.671L412.306 440.36L380.243 440.36L380.243 87.671z" stroke="none" fill="#FE5578" fill-rule="nonzero" />
	<g transform="matrix(1.5 0 0 1.5 128.00003 -0)">
	</g>
    <path transform="matrix(1.5 0 0 1.5 128.00003 -0)"  d="M396.274 39.577L412.305 87.671L380.243 87.671L396.274 39.577" stroke="none" fill="#FFFAED" fill-rule="nonzero" />
	<g transform="matrix(1.5 0 0 1.5 128.00003 -0)">
	</g>
    <path transform="matrix(1.5 0 0 1.5 128.00003 -0)"  d="M380.243 440.36L412.306 440.36L412.306 472.42297L380.243 472.42297L380.243 440.36z" stroke="none" fill="#EFECF1" fill-rule="nonzero" />
	<g transform="matrix(1.5 0 0 1.5 128.00003 -0)">
	</g>
    <path transform="matrix(1.5 0 0 1.5 128.00003 -0)"  d="M468.415 304.094L356.196 304.094L316.117 256L356.196 207.906L468.415 207.906L468.415 304.094" stroke="none" fill="#FDE8A3" fill-rule="nonzero" />
	<g transform="matrix(1.5 0 0 1.5 128.00003 -0)">
	</g>
    <path transform="matrix(1.5 0 0 1.5 128.00003 -0)"  d="M364.211 280.047L330.145 239.167L316.117 256L356.196 304.094L468.415 304.094L468.415 280.047L364.211 280.047" stroke="none" fill="#FDDA6B" fill-rule="nonzero" />
	<g transform="matrix(1.5 0 0 1.5 128.00003 -0)">
	</g>
    <path transform="matrix(1.5 0 0 1.5 128.00003 -0)"  d="M43.585 7.515L123.742 7.515L123.742 504.48602L43.585 504.48602L43.585 7.515z" stroke="none" fill="#FDE8A3" fill-rule="nonzero" />
	<g transform="matrix(1.5 0 0 1.5 128.00003 -0)">
	</g>
    <path transform="matrix(1.5 0 0 1.5 128.00003 -0)"  d="M43.585 7.515L67.632 7.515L67.632 504.48602L43.585 504.48602L43.585 7.515z" stroke="none" fill="#FDDA6B" fill-rule="nonzero" />
	<g transform="matrix(1.5 0 0 1.5 128.00003 -0)">
	</g>
    <path transform="matrix(1.5 0 0 1.5 128.00003 -0)"  d="M243.977 83.411C 215.38 51.637 189.961 83.411 202.671 108.83C 215.38101 134.249 243.977 143.781 243.977 143.781C 243.977 143.781 272.574 134.248 285.28302 108.83C 297.992 83.411 272.573 51.637 243.977 83.411z" stroke="none" fill="#FF8A99" fill-rule="nonzero" />
	<g transform="matrix(1.5 0 0 1.5 128.00003 -0)">
	</g>
    <path transform="matrix(1.5 0 0 1.5 128.00003 -0)"  d="M243.977 381.545C 215.38 349.77103 189.961 381.545 202.671 406.96402C 215.38101 432.38303 243.977 441.915 243.977 441.915C 243.977 441.915 272.574 432.38202 285.28302 406.96402C 297.992 381.545 272.573 349.771 243.977 381.545z" stroke="none" fill="#FF8A99" fill-rule="nonzero" />
	<g transform="matrix(1.5 0 0 1.5 128.00003 -0)">
	</g>
    <path transform="matrix(1.5 0 0 1.5 128.00003 -0)"  d="M243.977 227.693C 215.38 195.91899 189.961 227.693 202.671 253.112C 215.38 278.531 243.977 288.063 243.977 288.063C 243.977 288.063 272.574 278.53 285.28302 253.11198C 297.992 227.693 272.573 195.919 243.977 227.693z" stroke="none" fill="#FF8A99" fill-rule="nonzero" />
	<g transform="matrix(1.5 0 0 1.5 128.00003 -0)">
	</g>
    <path transform="matrix(1.5 0 0 1.5 128.00003 -0)"  d="M412.305 256C 412.305 251.57318 410.73987 247.79463 407.60962 244.66437C 404.47937 241.53413 400.70084 239.96901 396.274 239.969C 391.84717 239.96901 388.0686 241.53413 384.93835 244.66437C 381.8081 247.79463 380.24298 251.57318 380.24298 256C 380.24298 260.42685 381.8081 264.20538 384.93835 267.33563C 388.0686 270.46588 391.84717 272.031 396.274 272.031C 400.70084 272.031 404.47937 270.46588 407.60962 267.33563C 410.73987 264.20538 412.305 260.42685 412.305 256" stroke="none" fill="#A5F1DD" fill-rule="nonzero" />
	<g transform="matrix(1.5 0 0 1.5 128.00003 -0)">
	</g>
    <path transform="matrix(1.5 0 0 1.5 128.00003 -0)"  d="M468.415 200.391L451.883 200.391L451.883 7.515C 451.883 3.3649998 448.51898 0 444.36798 0L444.36798 0L43.585 0C 39.434 0 36.07 3.365 36.07 7.515L36.07 7.515L36.07 504.48602C 36.07 508.63602 39.434 512.00104 43.585 512.00104L43.585 512.00104L444.36798 512.00104C 448.51898 512.00104 451.883 508.63605 451.883 504.48602L451.883 504.48602L451.883 311.609L468.415 311.609C 472.566 311.609 475.93002 308.24402 475.93002 304.094L475.93002 304.094L475.93002 207.90599C 475.93 203.756 472.566 200.391 468.415 200.391zM436.853 496.971L131.256 496.971L131.256 101.198C 131.256 97.048 127.892 93.683 123.741 93.683C 119.59 93.683 116.226 97.048 116.226 101.198L116.226 101.198L116.226 496.971L51.1 496.971L51.1 15.029L116.227 15.029L116.227 65.127C 116.227 69.277 119.590996 72.642 123.742 72.642C 127.893 72.642 131.257 69.277 131.257 65.127L131.257 65.127L131.257 15.029L436.854 15.029L436.854 200.391L419.82 200.391L419.82 87.671C 419.82 86.868996 419.68802 86.055 419.43402 85.294L419.43402 85.294L403.403 37.199997C 402.381 34.131996 399.509 32.061996 396.27402 32.061996C 393.03903 32.061996 390.16702 34.131996 389.14502 37.199997L389.14502 37.199997L373.114 85.294C 372.86002 86.053 372.72803 86.868996 372.72803 87.671L372.72803 87.671L372.72803 200.39099L356.196 200.39099C 353.966 200.39099 351.851 201.38199 350.423 203.09499L350.423 203.09499L310.345 251.189C 308.023 253.97499 308.023 258.023 310.345 260.811L310.345 260.811L350.423 308.905C 351.851 310.618 353.966 311.609 356.196 311.609L356.196 311.609L372.72803 311.609L372.72803 472.423C 372.72803 476.573 376.09204 479.93802 380.24304 479.93802L380.24304 479.93802L412.30603 479.93802C 416.45703 479.93802 419.82104 476.57303 419.82104 472.423L419.82104 472.423L419.82104 311.609L436.85403 311.609L436.85403 496.971zM387.757 95.186L404.78998 95.186L404.78998 200.39099L387.757 200.39099L387.757 95.186zM390.668 80.157L396.274 63.340996L401.87997 80.157L390.668 80.157zM387.757 447.875L404.78998 447.875L404.78998 464.908L387.757 464.908L387.757 447.875zM404.791 432.845L387.758 432.845L387.758 311.609L404.791 311.609L404.791 432.845zM460.9 296.579L359.716 296.579L325.9 256L359.716 215.421L460.9 215.421L460.9 296.579z" stroke="none" fill="#000000" fill-rule="nonzero" />
	<g transform="matrix(1.5 0 0 1.5 128.00003 -0)">
	</g>
    <path transform="matrix(1.5 0 0 1.5 128.00003 -0)"  d="M282.595 67.117C 273.507 60.921997 259.053 59.692997 243.977 72.854C 228.90001 59.692997 214.446 60.922997 205.35901 67.117C 191.99802 76.223 187.86601 96.020996 195.95001 112.19C 209.89201 140.072 240.31302 150.48001 241.60101 150.91C 243.13602 151.421 244.81902 151.421 246.35402 150.91C 247.64201 150.48001 278.062 140.073 292.005 112.19C 300.088 96.022 295.956 76.223 282.595 67.117zM278.562 105.469C 269.46002 123.672 250.617 132.927 243.97702 135.72C 237.32101 132.92 218.48901 123.665 209.39001 105.47C 204.11201 94.914 207.58002 83.791 213.82101 79.537C 215.73701 78.231 217.86201 77.589005 220.14001 77.589005C 225.61601 77.589005 231.96901 81.303 238.39001 88.437004C 241.33202 91.704 246.62102 91.704 249.56201 88.437004C 258.65402 78.33401 267.608 75.092 274.131 79.537C 280.371 83.79 283.839 94.913 278.562 105.469z" stroke="none" fill="#000000" fill-rule="nonzero" />
	<g transform="matrix(1.5 0 0 1.5 128.00003 -0)">
	</g>
    <path transform="matrix(1.5 0 0 1.5 128.00003 -0)"  d="M282.595 365.252C 273.507 359.056 259.053 357.828 243.977 370.989C 228.90001 357.829 214.446 359.058 205.35901 365.252C 191.99802 374.358 187.86601 394.156 195.95001 410.325C 209.89201 438.207 240.31302 448.61502 241.60101 449.045C 243.13602 449.556 244.81902 449.556 246.35402 449.045C 247.64201 448.61502 278.062 438.208 292.005 410.325C 300.088 394.156 295.956 374.357 282.595 365.252zM278.562 403.603C 269.46002 421.806 250.617 431.061 243.97702 433.854C 237.32101 431.053 218.48901 421.799 209.39001 403.604C 204.11201 393.048 207.58002 381.925 213.82101 377.671C 215.73701 376.365 217.86201 375.723 220.14001 375.723C 225.61601 375.723 231.96901 379.43698 238.39001 386.57098C 241.33202 389.83798 246.62102 389.83798 249.56201 386.57098C 258.65402 376.468 267.608 373.22498 274.131 377.671C 280.371 381.924 283.839 393.048 278.562 403.603z" stroke="none" fill="#000000" fill-rule="nonzero" />
	<g transform="matrix(1.5 0 0 1.5 128.00003 -0)">
	</g>
    <path transform="matrix(1.5 0 0 1.5 128.00003 -0)"  d="M282.595 211.399C 273.507 205.204 259.053 203.976 243.977 217.136C 228.90001 203.976 214.446 205.205 205.35901 211.399C 191.99802 220.505 187.86601 240.30301 195.95001 256.47202C 209.89201 284.354 240.31302 294.76202 241.60101 295.19202C 243.13602 295.703 244.81902 295.703 246.35402 295.19202C 247.64201 294.76202 278.062 284.355 292.005 256.47202C 300.088 240.303 295.956 220.505 282.595 211.399zM278.562 249.751C 269.46002 267.954 250.617 277.209 243.97702 280.002C 237.32101 277.20203 218.48901 267.94702 209.39001 249.75201C 204.11201 239.19601 207.58002 228.07301 213.82101 223.81902C 215.73701 222.51302 217.86201 221.87102 220.14001 221.87102C 225.61601 221.87102 231.96901 225.58502 238.39001 232.71902C 241.33202 235.98602 246.62102 235.98602 249.56201 232.71902C 258.65402 222.61603 267.608 219.37303 274.131 223.81903C 280.371 228.071 283.839 239.195 278.562 249.751z" stroke="none" fill="#000000" fill-rule="nonzero" />
	<g transform="matrix(1.5 0 0 1.5 128.00003 -0)">
	</g>
    <path transform="matrix(1.5 0 0 1.5 128.00003 -0)"  d="M396.274 279.546C 409.257 279.546 419.81998 268.983 419.81998 255.99998C 419.81998 243.01697 409.257 232.45398 396.274 232.45398C 383.291 232.45398 372.728 243.01698 372.728 255.99998C 372.728 268.983 383.291 279.546 396.274 279.546zM396.274 247.483C 400.97 247.483 404.791 251.30301 404.791 256C 404.791 260.697 400.97098 264.517 396.274 264.517C 391.57797 264.517 387.757 260.697 387.757 256C 387.757 251.304 391.578 247.483 396.274 247.483z" stroke="none" fill="#000000" fill-rule="nonzero" />
</g>
</svg>