<?xml version="1.0" encoding="iso-8859-1"?>
<!-- Generator: Adobe Illustrator 19.0.0, SVG Export Plug-In . SVG Version: 6.00 Build 0)  -->
<svg version="1.1" id="Capa_1" xmlns="http://www.w3.org/2000/svg" xmlns:xlink="http://www.w3.org/1999/xlink" x="0px" y="0px"
	 viewBox="0 0 512 512" style="enable-background:new 0 0 512 512;" xml:space="preserve">
<rect x="43.585" y="7.515" style="fill:#61E7C4;" width="400.783" height="496.971"/>
<rect x="380.243" y="87.671" style="fill:#FE5578;" width="32.063" height="352.689"/>
<polygon style="fill:#FFFAED;" points="396.274,39.577 412.305,87.671 380.243,87.671 "/>
<rect x="380.243" y="440.36" style="fill:#EFECF1;" width="32.063" height="32.063"/>
<polygon style="fill:#FDE8A3;" points="468.415,304.094 356.196,304.094 316.117,256 356.196,207.906 468.415,207.906 "/>
<polygon style="fill:#FDDA6B;" points="364.211,280.047 330.145,239.167 316.117,256 356.196,304.094 468.415,304.094 
	468.415,280.047 "/>
<rect x="43.585" y="7.515" style="fill:#FDE8A3;" width="80.157" height="496.971"/>
<rect x="43.585" y="7.515" style="fill:#FDDA6B;" width="24.047" height="496.971"/>
<g>
	<path style="fill:#FF8A99;" d="M243.977,83.411c-28.597-31.774-54.016,0-41.306,25.419s41.306,34.951,41.306,34.951
		s28.597-9.533,41.306-34.951C297.992,83.411,272.573,51.637,243.977,83.411z"/>
	<path style="fill:#FF8A99;" d="M243.977,381.545c-28.597-31.774-54.016,0-41.306,25.419c12.71,25.419,41.306,34.951,41.306,34.951
		s28.597-9.533,41.306-34.951C297.992,381.545,272.573,349.771,243.977,381.545z"/>
	<path style="fill:#FF8A99;" d="M243.977,227.693c-28.597-31.774-54.016,0-41.306,25.419c12.709,25.419,41.306,34.951,41.306,34.951
		s28.597-9.533,41.306-34.951C297.992,227.693,272.573,195.919,243.977,227.693z"/>
</g>
<circle style="fill:#A5F1DD;" cx="396.274" cy="256" r="16.031"/>
<path d="M468.415,200.391h-16.532V7.515c0-4.15-3.364-7.515-7.515-7.515H43.585c-4.151,0-7.515,3.365-7.515,7.515v496.971
	c0,4.15,3.364,7.515,7.515,7.515h400.783c4.151,0,7.515-3.365,7.515-7.515V311.609h16.532c4.151,0,7.515-3.365,7.515-7.515v-96.188
	C475.93,203.756,472.566,200.391,468.415,200.391z M436.853,496.971H131.256V101.198c0-4.15-3.364-7.515-7.515-7.515
	c-4.151,0-7.515,3.365-7.515,7.515v395.773H51.1V15.029h65.127v50.098c0,4.15,3.364,7.515,7.515,7.515
	c4.151,0,7.515-3.365,7.515-7.515V15.029h305.597v185.362H419.82V87.671c0-0.802-0.132-1.616-0.386-2.377l-16.031-48.094
	c-1.022-3.068-3.894-5.138-7.129-5.138s-6.107,2.07-7.129,5.138l-16.031,48.094c-0.254,0.759-0.386,1.575-0.386,2.377v112.72
	h-16.532c-2.23,0-4.345,0.991-5.773,2.704l-40.078,48.094c-2.322,2.786-2.322,6.834,0,9.622l40.078,48.094
	c1.428,1.713,3.543,2.704,5.773,2.704h16.532v160.814c0,4.15,3.364,7.515,7.515,7.515h32.063c4.151,0,7.515-3.365,7.515-7.515
	V311.609h17.033V496.971z M387.757,95.186h17.033v105.205h-17.033V95.186z M390.668,80.157l5.606-16.816l5.606,16.816H390.668z
	 M387.757,447.875h17.033v17.033h-17.033V447.875z M404.791,432.845h-17.033V311.609h17.033V432.845z M460.9,296.579H359.716
	L325.9,256l33.816-40.579H460.9V296.579z"/>
<path d="M282.595,67.117c-9.088-6.195-23.542-7.424-38.618,5.737c-15.077-13.161-29.531-11.931-38.618-5.737
	c-13.361,9.106-17.493,28.904-9.409,45.073c13.942,27.882,44.363,38.29,45.651,38.72c1.535,0.511,3.218,0.511,4.753,0
	c1.288-0.43,31.708-10.837,45.651-38.72C300.088,96.022,295.956,76.223,282.595,67.117z M278.562,105.469
	c-9.102,18.203-27.945,27.458-34.585,30.251c-6.656-2.8-25.488-12.055-34.587-30.25c-5.278-10.556-1.81-21.679,4.431-25.933
	c1.916-1.306,4.041-1.948,6.319-1.948c5.476,0,11.829,3.714,18.25,10.848c2.942,3.267,8.231,3.267,11.172,0
	c9.092-10.103,18.046-13.345,24.569-8.9C280.371,83.79,283.839,94.913,278.562,105.469z"/>
<path d="M282.595,365.252c-9.088-6.196-23.542-7.424-38.618,5.737c-15.077-13.16-29.531-11.931-38.618-5.737
	c-13.361,9.106-17.493,28.904-9.409,45.073c13.942,27.882,44.363,38.29,45.651,38.72c1.535,0.511,3.218,0.511,4.753,0
	c1.288-0.43,31.708-10.837,45.651-38.72C300.088,394.156,295.956,374.357,282.595,365.252z M278.562,403.603
	c-9.102,18.203-27.945,27.458-34.585,30.251c-6.656-2.801-25.488-12.055-34.587-30.25c-5.278-10.556-1.81-21.679,4.431-25.933
	c1.916-1.306,4.041-1.948,6.319-1.948c5.476,0,11.829,3.714,18.25,10.848c2.942,3.267,8.231,3.267,11.172,0
	c9.092-10.103,18.046-13.346,24.569-8.9C280.371,381.924,283.839,393.048,278.562,403.603z"/>
<path d="M282.595,211.399c-9.088-6.195-23.542-7.423-38.618,5.737c-15.077-13.16-29.531-11.931-38.618-5.737
	c-13.361,9.106-17.493,28.904-9.409,45.073c13.942,27.882,44.363,38.29,45.651,38.72c1.535,0.511,3.218,0.511,4.753,0
	c1.288-0.43,31.708-10.837,45.651-38.72C300.088,240.303,295.956,220.505,282.595,211.399z M278.562,249.751
	c-9.102,18.203-27.945,27.458-34.585,30.251c-6.656-2.8-25.488-12.055-34.587-30.25c-5.278-10.556-1.81-21.679,4.431-25.933
	c1.916-1.306,4.041-1.948,6.319-1.948c5.476,0,11.829,3.714,18.25,10.848c2.942,3.267,8.231,3.267,11.172,0
	c9.092-10.103,18.046-13.346,24.569-8.9C280.371,228.071,283.839,239.195,278.562,249.751z"/>
<path d="M396.274,279.546c12.983,0,23.546-10.563,23.546-23.546s-10.563-23.546-23.546-23.546
	c-12.983,0-23.546,10.563-23.546,23.546C372.728,268.983,383.291,279.546,396.274,279.546z M396.274,247.483
	c4.696,0,8.517,3.82,8.517,8.517s-3.82,8.517-8.517,8.517c-4.696,0-8.517-3.82-8.517-8.517
	C387.757,251.304,391.578,247.483,396.274,247.483z"/>
<g>
</g>
<g>
</g>
<g>
</g>
<g>
</g>
<g>
</g>
<g>
</g>
<g>
</g>
<g>
</g>
<g>
</g>
<g>
</g>
<g>
</g>
<g>
</g>
<g>
</g>
<g>
</g>
<g>
</g>
</svg>
